# xmcd
#
# Track frame offsets:
#	150
#	9239
#	19781
#	30358
#	39623
#	50696
#	61130
#	70215
#	80363
#	91584
#	101340
#	113929
#	125185
#	135370
#	146879
#	157249
#	169098
#	178336
#	190263
#	202869
#
# Disc length: 2881 seconds
#
# Revision: 1
# Processed by: cddbd v1.5.2PL0 Copyright (c) Steve Scherf et al.
# Submitted via: audiograbber 1.83.01
#
DISCID=0e0b3f14
DTITLE=Various Artist - Don't Fight It, Feel It - Gems From The SAR Vaults - 1
DTITLE=959-1962  [CD1)
DYEAR=2015
DGENRE=Oldies
TTITLE0=Sims Twins - Don't Fight It, Feel It
TTITLE1=Sam Cooke - Just For You
TTITLE2=Johnnie Morisette - In My Heart
TTITLE3=L.C. Cooke - Sufferin'
TTITLE4=Valentinos - Lookin' For A Love
TTITLE5=Soul Stirrers - God Is Standing By
TTITLE6=Patience Valentine - If You Don't Come (You Better Call)
TTITLE7=Clifton White - Dance What You Wanna
TTITLE8=Johnnie Morisette - Anytime, Anyplace, Anywhere
TTITLE9=Sims Twins - You're Pickin' In The Right Cotton Patch
TTITLE10=Soul Stirrers - Wade In The Water
TTITLE11=Jacki Ross - Hard Times
TTITLE12=L.C. Cooke - You're Workin' Out Your Bag
TTITLE13=Johnnie Taylor - Never, Never
TTITLE14=Sims Twins - Right To Love
TTITLE15=Soul Stirrers - Must Jesus Bear The Cross Alone
TTITLE16=Johnnie Morisette - Always On My Mind 
TTITLE17=L.C. Cooke - Magic Words
TTITLE18=Johnnie Morisette - Meet Me At The Twistin' Place
TTITLE19=Soul Stirrers - Listen To The Angels
EXTD=
EXTT0=
EXTT1=
EXTT2=
EXTT3=
EXTT4=
EXTT5=
EXTT6=
EXTT7=
EXTT8=
EXTT9=
EXTT10=
EXTT11=
EXTT12=
EXTT13=
EXTT14=
EXTT15=
EXTT16=
EXTT17=
EXTT18=
EXTT19=
PLAYORDER=
